<svg width="80" height="93" viewBox="0 0 80 93" fill="none" xmlns="http://www.w3.org/2000/svg">
<path d="M0 93C0 71.3136 17.5803 53.7333 39.2667 53.7333H80C80 75.4197 62.4197 93 40.7333 93H0Z" fill="#7FF9D0"/>
<path d="M0 64.7555C0 42.6887 17.8887 24.8 39.9556 24.8H80C80 46.8668 62.1113 64.7555 40.0444 64.7555H0Z" fill="#7FF9D0"/>
<path d="M0 64.7555C0 42.6887 17.8887 24.8 39.9556 24.8H80C80 46.8668 62.1113 64.7555 40.0444 64.7555H0Z" fill="#EEFF41" fill-opacity="0.45"/>
<path d="M0 39.2667C0 17.5803 17.5803 0 39.2667 0H80C80 21.6864 62.4197 39.2667 40.7333 39.2667H0Z" fill="#EEFF41"/>
</svg>
